{"title":"Formula 1 2011 Race 13 Monza BBC F1 Forum","uid":6668523,"size":1447946973,"categoryP":"video","categoryS":"tv_shows","magnet":"?xt=urn:btih:ead53f4c1d26af8e73ed27e1a7b031d418dec8f6&amp;dn=Formula+1+2011+Race+13+Monza+BBC+F1+Forum&amp;tr=udp%3A%2F%2Ftracker.openbittorrent.com%3A80&amp;tr=udp%3A%2F%2Fopen.demonii.com%3A1337&amp;tr=udp%3A%2F%2Ftracker.coppersurfer.tk%3A6969&amp;tr=udp%3A%2F%2Fexodus.desync.com%3A6969","seeders":0,"leechers":0,"uploader":"jorrell0733","files":3,"time":1315788353,"description":"[img]http://www.khaolaknews.com/wp-content/uploads/2011/03/f1.jpg[/img]\n\nFormula One 2011 Season\n\nBBc F1 Forum\nRace 13: Italian Grand Prix, Monza\n\nRecord Source: BBC One Red Button Service\nOriginal Format: MPEG TS Stream\nDate: Sunday 11th Sept 2011\nTime: 15:20 to 16:10\n\n***PLEASE NOTE*** For those who are unfamiliar with the BBC F1 FOrum, This is the POST RACE Anaylsis of the \nItalian Grand Prix. DO NOT WATCH THIS UNTIL YOU KNOW THE RESULT OF THE RACE!!\n\nJake Humpfries ,Martin Brundle &amp; Eddie Jordan present POST RACE coverage of the BBC Red Button F1 Forum for the\n13th Race meeting of the 2011 Formula One season, The Italiian Grand Prix, from Monza\n\nComplete File Name\t\t : F1 2011 Race 13 Italian BBC F1 Forum.mkv\nFormat                           : Matroska\nFormat version                   : Version 2\nFile size                        : 1.35 GiB\nDuration                         : 48mn 41s\nOverall bit rate                 : 3 965 Kbps\nWriting application              : HandBrake 0.9.5\nWriting library                  : libmkv 0.6.4.1\n\nVideo\nID                               : 1\nFormat                           : AVC\nFormat/Info                      : Advanced Video Codec\nFormat profile                   : &lt;a class=&quot;__cf_email__&quot; href=&quot;/cdn-cgi/l/email-protection&quot; data-cfemail=&quot;094468606749453a2739&quot;&gt;[email&amp;#160;protected]&lt;/a&gt;&lt;script data-cfhash='f9e31' type=&quot;text/javascript&quot;&gt;\n/* &lt;![CDATA[ */!function(){try{var t=&quot;currentScript&quot;in document?document.currentScript:function(){for(var t=document.getElementsByTagName(&quot;script&quot;),e=t.length;e--;)if(t[e].getAttribute(&quot;data-cfhash&quot;))return t[e]}();if(t&amp;&amp;t.previousSibling){var e,r,n,i,c=t.previousSibling,a=c.getAttribute(&quot;data-cfemail&quot;);if(a){for(e=&quot;&quot;,r=parseInt(a.substr(0,2),16),n=2;a.length-n;n+=2)i=parseInt(a.substr(n,2),16)^r,e+=String.fromCharCode(i);e=document.createTextNode(e),c.parentNode.replaceChild(e,c)}t.parentNode.removeChild(t);}}catch(u){}}()/* ]]&gt; */&lt;/script&gt;\nFormat settings, CABAC           : Yes\nFormat settings, ReFrames        : 4 frames\nCodec ID                         : V_MPEG4/ISO/AVC\nDuration                         : 48mn 41s\nBit rate                         : 3 822 Kbps\nWidth                            : 544 pixels\nHeight                           : 576 pixels\nDisplay aspect ratio             : 16:9\nFrame rate mode                  : Variable\nFrame rate                       : 25.000 fps\nColor space                      : YUV\nChroma subsampling               : 4:2:0\nBit depth                        : 8 bits\nScan type                        : Progressive\nBits/(Pixel*Frame)               : 0.488\nStream size                      : 1.28 GiB (95%)\nWriting library                  : x264 core 112\nEncoding settings                : cabac=1 / ref=2 / deblock=1:0:0 / analyse=0x1:0x111 / me=hex / subme=6 / psy=1 / psy_rd=1.00:0.00 / mixed_ref=0 / me_range=16 / chroma_me=1 / trellis=0 / 8x8dct=0 / cqm=0 / deadzone=21,11 / fast_pskip=1 / chroma_qp_offset=-2 / threads=3 / sliced_threads=0 / nr=0 / decimate=1 / interlaced=0 / constrained_intra=0 / bframes=2 / b_pyramid=2 / b_adapt=1 / b_bias=0 / direct=1 / weightb=0 / open_gop=0 / weightp=2 / keyint=250 / keyint_min=25 / scenecut=40 / intra_refresh=0 / rc_lookahead=40 / rc=abr / mbtree=1 / bitrate=3822 / ratetol=1.0 / qcomp=0.60 / qpmin=3 / qpmax=51 / qpstep=4 / ip_ratio=1.40 / aq=1:1.00\nLanguage                         : English\nColor primaries                  : BT.601-6 525, BT.1358 525, BT.1700 NTSC, SMPTE 170M\nTransfer characteristics         : BT.709-5, BT.1361\nMatrix coefficients              : BT.601-6 525, BT.1358 525, BT.1700 NTSC, SMPTE 170M\n\nAudio\nID                               : 2\nFormat                           : AC-3\nFormat/Info                      : Audio Coding 3\nMode extension                   : CM (complete main)\nCodec ID                         : A_AC3\nDuration                         : 48mn 41s\nBit rate mode                    : Constant\nBit rate                         : 128 Kbps\nChannel(s)                       : 2 channels\nChannel positions                : Front: L R\nSampling rate                    : 48.0 KHz\nBit depth                        : 16 bits\nCompression mode                 : Lossy\nStream size                      : 44.6 MiB (3%)\nLanguage                         : English\n\n\nEnjoy, The Blacknight\n","torrent":{"xt":"urn:btih:ead53f4c1d26af8e73ed27e1a7b031d418dec8f6","amp;dn":"Formula+1+2011+Race+13+Monza+BBC+F1+Forum","amp;tr":["udp%3A%2F%2Ftracker.openbittorrent.com%3A80","udp%3A%2F%2Fopen.demonii.com%3A1337","udp%3A%2F%2Ftracker.coppersurfer.tk%3A6969","udp%3A%2F%2Fexodus.desync.com%3A6969"],"infoHash":"ead53f4c1d26af8e73ed27e1a7b031d418dec8f6","infoHashBuffer":{"type":"Buffer","data":[234,213,63,76,29,38,175,142,115,237,39,225,167,176,49,212,24,222,200,246]},"announce":[],"urlList":[]}}